<?xml version="1.0" standalone="no"?>
<!DOCTYPE svg PUBLIC "-//W3C//DTD SVG 20010904//EN"
 "http://www.w3.org/TR/2001/REC-SVG-20010904/DTD/svg10.dtd">
<svg version="1.0" xmlns="http://www.w3.org/2000/svg"
 width="500.000000pt" height="78.000000pt" viewBox="0 0 500.000000 78.000000"
 preserveAspectRatio="xMidYMid meet">

<g transform="translate(0.000000,78.000000) scale(0.100000,-0.100000)"
fill="#000000" stroke="none">
<path d="M2675 750 c-42 -46 -10 -120 51 -120 92 0 95 130 2 138 -24 2 -39 -3
-53 -18z"/>
<path d="M1140 356 l0 -346 153 0 c181 0 239 13 292 65 79 80 64 206 -32 271
l-32 21 30 22 c103 76 89 221 -26 280 -46 24 -60 26 -217 29 l-168 4 0 -346z
m293 243 c71 -19 94 -106 43 -158 -24 -24 -34 -26 -126 -29 l-100 -4 0 101 0
101 73 0 c39 0 89 -5 110 -11z m21 -293 c95 -39 87 -168 -12 -196 -20 -5 -72
-10 -114 -10 l-78 0 0 110 0 110 85 0 c51 0 99 -6 119 -14z"/>
<path d="M930 625 c-18 -22 -1 -50 31 -50 20 0 24 5 24 30 0 23 -5 31 -21 33
-11 2 -27 -4 -34 -13z m46 -30 c-8 -22 -40 -15 -43 10 -2 15 -1 16 5 5 10 -21
32 -24 32 -4 0 9 -5 12 -12 8 -7 -5 -8 -3 -3 5 10 18 29 -3 21 -24z"/>
<path d="M824 546 c-17 -8 -47 -28 -67 -46 -21 -18 -35 -26 -33 -19 2 8 7 26
10 42 l6 27 -57 0 -58 0 -43 -252 c-24 -139 -46 -261 -49 -271 -4 -16 1 -18
53 -15 l58 3 28 160 c16 88 37 176 47 195 19 38 65 66 123 75 38 6 42 11 54
78 6 34 4 37 -17 37 -13 -1 -38 -7 -55 -14z"/>
<path d="M1670 365 c0 -209 6 -243 53 -293 74 -79 230 -90 303 -21 l24 22 0
-31 0 -32 55 0 55 0 0 275 0 275 -55 0 -55 0 0 -177 c0 -203 -9 -235 -70 -265
-68 -35 -147 -12 -182 53 -15 29 -18 58 -18 211 l0 178 -55 0 -55 0 0 -195z"/>
<path d="M2289 537 c-56 -29 -95 -98 -85 -152 12 -62 57 -101 149 -130 45 -14
99 -33 120 -42 107 -47 5 -146 -108 -103 -14 5 -34 23 -43 40 -16 28 -21 30
-73 30 l-57 0 8 -36 c22 -98 155 -161 284 -134 117 24 175 120 130 216 -20 43
-58 65 -164 99 -109 34 -130 47 -130 85 0 23 7 33 30 45 56 29 120 14 148 -35
16 -27 21 -30 71 -30 l54 0 -6 35 c-14 87 -88 135 -209 135 -59 0 -84 -5 -119
-23z"/>
<path d="M2670 285 l0 -275 55 0 55 0 0 275 0 275 -55 0 -55 0 0 -275z"/>
<path d="M2837 554 c-4 -4 -7 -128 -7 -276 l0 -268 60 0 60 0 0 180 c0 198 5
222 57 255 39 26 114 26 150 -1 56 -41 63 -71 63 -261 l0 -173 55 0 55 0 0
189 c0 114 -4 201 -11 222 -19 54 -58 100 -107 121 -62 28 -177 23 -221 -10
-37 -27 -39 -27 -43 1 -3 19 -10 22 -53 25 -28 2 -54 0 -58 -4z"/>
<path d="M3514 537 c-195 -93 -193 -413 3 -508 68 -32 179 -33 245 0 49 23
112 87 121 122 5 17 0 19 -58 19 -47 0 -64 -4 -69 -15 -10 -27 -69 -55 -116
-55 -54 0 -102 27 -130 72 -42 69 -44 68 184 68 l204 0 5 27 c9 46 -11 134
-41 182 -16 27 -48 58 -76 76 -43 26 -60 30 -135 33 -74 2 -93 -1 -137 -21z
m216 -97 c33 -23 65 -83 55 -100 -4 -6 -70 -10 -151 -10 -133 0 -144 1 -144
19 0 29 42 84 80 104 46 24 116 18 160 -13z"/>
<path d="M4022 539 c-78 -39 -111 -121 -77 -192 22 -46 58 -68 168 -102 91
-28 137 -56 137 -81 0 -8 -11 -26 -25 -39 -47 -48 -161 -26 -180 35 -5 17 -15
20 -66 20 l-59 0 6 -27 c24 -105 155 -171 286 -144 100 21 160 98 144 184 -11
58 -58 94 -165 127 -117 37 -141 52 -141 89 0 36 18 51 67 58 51 6 90 -10 111
-47 15 -27 22 -30 70 -30 47 0 52 2 52 23 0 40 -43 99 -89 124 -60 32 -177 33
-239 2z"/>
<path d="M4493 545 c-102 -44 -129 -161 -56 -237 18 -19 54 -37 108 -53 123
-39 155 -55 162 -83 9 -37 -35 -72 -90 -72 -48 0 -102 29 -112 59 -5 18 -15
21 -61 21 -48 0 -54 -2 -54 -20 0 -28 23 -70 52 -96 105 -96 305 -76 363 37
31 59 12 139 -42 174 -15 10 -75 35 -132 54 -57 20 -109 43 -114 52 -15 24 0
64 28 77 58 27 134 2 150 -48 5 -17 15 -20 62 -20 l56 0 -6 35 c-14 87 -89
135 -208 135 -41 -1 -89 -7 -106 -15z"/>
<path d="M95 528 c-19 -79 -55 -311 -55 -353 0 -105 65 -165 181 -165 50 0 77
6 115 25 27 14 50 25 52 25 1 0 2 -11 2 -25 0 -24 3 -25 53 -25 l53 0 43 243
c23 133 45 254 48 270 5 27 5 27 -51 27 -50 0 -56 -2 -61 -22 -2 -13 -16 -87
-29 -165 -14 -78 -32 -155 -40 -171 -54 -104 -194 -121 -240 -29 -18 38 -18
40 9 195 15 86 29 165 31 175 5 15 -2 17 -50 17 -49 0 -56 -3 -61 -22z"/>
<path d="M4860 130 c-26 -26 -26 -81 0 -105 29 -26 79 -24 102 4 56 70 -39
164 -102 101z"/>
</g>
</svg>
